<svg width="131" height="30" viewBox="0 0 131 30" fill="none" xmlns="http://www.w3.org/2000/svg">
<g clip-path="url(#clip0_394_122)">
<path d="M37.9557 20.5387H47.2841V18.0272H41.2712V8.56754H37.9557V20.5387Z" fill="white"/>
<path d="M52.8109 18.8644C51.4809 18.8644 50.7878 17.8263 50.7878 16.2692C50.7878 14.7122 51.4809 13.6574 52.8109 13.6574C54.1408 13.6574 54.8526 14.7122 54.8526 16.2692C54.8526 17.8263 54.1408 18.8644 52.8109 18.8644ZM52.8296 20.8065C55.9203 20.8065 57.9433 18.8476 57.9433 16.2692C57.9433 13.6908 55.9203 11.7319 52.8296 11.7319C49.7576 11.7319 47.6971 13.6908 47.6971 16.2692C47.6971 18.8476 49.7576 20.8065 52.8296 20.8065Z" fill="white"/>
<path d="M63.2931 23.5021C64.7167 23.5021 65.9717 23.2175 66.8147 22.5478C67.5827 21.9283 68.0884 20.9907 68.0884 19.7015V11.9663H65.1663V12.8872H65.1288C64.5669 12.1672 63.7052 11.7152 62.4314 11.7152C60.0525 11.7152 58.4041 13.4899 58.4041 16.0014C58.4041 18.63 60.4084 20.0699 62.5626 20.0699C63.7239 20.0699 64.4545 19.6513 65.0164 19.082H65.0913V19.9359C65.0913 20.974 64.5481 21.5767 63.2556 21.5767C62.2441 21.5767 61.7384 21.1916 61.5698 20.7396H58.6102C58.9099 22.5311 60.6519 23.5021 63.2931 23.5021ZM63.2744 18.044C62.1317 18.044 61.3825 17.2068 61.3825 15.9176C61.3825 14.6117 62.1317 13.7746 63.2744 13.7746C64.5481 13.7746 65.2225 14.7456 65.2225 15.9009C65.2225 17.1064 64.6043 18.044 63.2744 18.044Z" fill="white"/>
<path d="M74.0969 18.8644C72.767 18.8644 72.0739 17.8263 72.0739 16.2692C72.0739 14.7122 72.767 13.6574 74.0969 13.6574C75.4269 13.6574 76.1387 14.7122 76.1387 16.2692C76.1387 17.8263 75.4269 18.8644 74.0969 18.8644ZM74.1157 20.8065C77.2064 20.8065 79.2297 18.8476 79.2297 16.2692C79.2297 13.6908 77.2064 11.7319 74.1157 11.7319C71.0437 11.7319 68.9832 13.6908 68.9832 16.2692C68.9832 18.8476 71.0437 20.8065 74.1157 20.8065Z" fill="white"/>
<path d="M80.121 20.5387H83.1742V11.9663H80.121V20.5387ZM80.121 10.7776H83.1742V8.56754H80.121V10.7776Z" fill="white"/>
<path d="M84.4987 23.3682H87.552V19.6513H87.5895C88.1889 20.3712 89.0693 20.8065 90.3056 20.8065C92.8156 20.8065 94.4827 19.0318 94.4827 16.2525C94.4827 13.6741 92.928 11.7152 90.3805 11.7152C89.0693 11.7152 88.1327 12.2342 87.4771 13.0044H87.4209V11.9663H84.4987V23.3682ZM89.5188 18.6969C88.2076 18.6969 87.4583 17.7426 87.4583 16.353C87.4583 14.9633 88.1327 13.9085 89.4626 13.9085C90.7739 13.9085 91.392 14.8796 91.392 16.353C91.392 17.8096 90.6802 18.6969 89.5188 18.6969Z" fill="white"/>
<path d="M99.4544 20.8065C101.964 20.8065 103.819 19.8355 103.819 17.9603C103.819 15.767 101.833 15.3819 100.148 15.1307C98.93 14.9298 97.8435 14.8461 97.8435 14.2434C97.8435 13.7076 98.4242 13.4564 99.1735 13.4564C100.016 13.4564 100.597 13.6908 100.709 14.461H103.519C103.369 12.77 101.908 11.7152 99.1922 11.7152C96.9257 11.7152 95.0525 12.6528 95.0525 14.461C95.0525 16.4702 96.832 16.872 98.4991 17.1231C99.7729 17.324 100.934 17.4077 100.934 18.1779C100.934 18.7304 100.354 19.0318 99.4357 19.0318C98.4242 19.0318 97.7873 18.6132 97.6749 17.7593H94.7902C94.8839 19.6513 96.6447 20.8065 99.4544 20.8065Z" fill="white"/>
<path d="M107.966 20.7898C109.296 20.7898 110.139 20.321 110.832 19.4839H110.888V20.5387H113.81V11.9663H110.757V16.7548C110.757 17.7761 110.12 18.4793 109.071 18.4793C108.097 18.4793 107.629 17.9603 107.629 17.0227V11.9663H104.594V17.5919C104.594 19.5006 105.755 20.7898 107.966 20.7898Z" fill="white"/>
<path d="M115.138 20.5387H118.192V15.7335C118.192 14.7122 118.754 13.9922 119.709 13.9922C120.627 13.9922 121.058 14.528 121.058 15.4488V20.5387H124.111V15.7335C124.111 14.7122 124.654 13.9922 125.628 13.9922C126.546 13.9922 126.977 14.528 126.977 15.4488V20.5387H130.03V14.9633C130.03 13.0379 128.944 11.7152 126.771 11.7152C125.534 11.7152 124.504 12.184 123.755 13.222H123.717C123.23 12.3012 122.275 11.7152 121.02 11.7152C119.634 11.7152 118.716 12.3012 118.117 13.1886H118.06V11.9663H115.138V20.5387Z" fill="white"/>
<path fill-rule="evenodd" clip-rule="evenodd" d="M6.75447 3.16629C5.63786 3.86416 4.62814 4.68926 3.75162 5.61809C7.33351 5.32085 11.8842 5.8062 17.1674 8.16738C22.8093 10.6887 27.3523 10.774 30.5141 10.2288C30.2272 9.45246 29.866 8.70629 29.4382 7.99695C25.8188 8.33815 21.1788 7.88651 15.7713 5.4699C12.3375 3.93528 9.31059 3.30312 6.75447 3.16629ZM27.3239 5.30712C24.4657 2.45272 20.312 0.656355 15.6889 0.656355C14.3312 0.656355 13.0139 0.811301 11.7581 1.10247C13.459 1.51727 15.2658 2.12413 17.1674 2.97403C21.1266 4.74336 24.5446 5.31306 27.3239 5.30712ZM31.1901 12.954C27.3704 13.6282 22.0958 13.4897 15.7713 10.6632C9.85865 8.02081 5.15268 8.05408 1.9788 8.68452C1.81498 8.71703 1.65501 8.75121 1.4989 8.78679C1.08336 9.59456 0.751667 10.444 0.513671 11.326C0.767864 11.2654 1.03053 11.2077 1.30154 11.1538C5.15201 10.389 10.5924 10.4222 17.1674 13.3607C23.0802 16.0032 27.7861 15.9699 30.9601 15.3394C31.0688 15.3179 31.176 15.2956 31.2813 15.2725C31.2929 15.0526 31.2986 14.8312 31.2986 14.6087C31.2986 14.0488 31.2618 13.4967 31.1901 12.954ZM30.7717 18.217C26.989 18.8081 21.868 18.5812 15.7713 15.8566C9.85865 13.2141 5.15268 13.2474 1.9788 13.8779C1.27429 14.0177 0.640529 14.1882 0.081459 14.3681C0.0799347 14.4481 0.0791721 14.5283 0.0791721 14.6087C0.0791721 22.3144 7.06789 28.561 15.6889 28.561C22.9139 28.561 28.9925 24.1737 30.7717 18.217Z" fill="white"/>
</g>
<defs>
<clipPath id="clip0_394_122">
<rect width="130.341" height="28.6023" fill="white" transform="translate(0 0.451738)"/>
</clipPath>
</defs>
</svg>
