<svg width="20" height="21" viewBox="0 0 20 21" fill="none" xmlns="http://www.w3.org/2000/svg">
<g clip-path="url(#clip0_394_299)">
<path d="M7.49999 16.1669C3.33332 17.4169 3.33332 14.0835 1.66666 13.6669M13.3333 18.6669V15.4419C13.3646 15.0445 13.3109 14.645 13.1758 14.27C13.0408 13.895 12.8274 13.553 12.55 13.2669C15.1667 12.9752 17.9167 11.9835 17.9167 7.43353C17.9164 6.27005 17.4689 5.15119 16.6667 4.30853C17.0465 3.29061 17.0197 2.16548 16.5917 1.16686C16.5917 1.16686 15.6083 0.875192 13.3333 2.40019C11.4233 1.88254 9.40998 1.88254 7.49999 2.40019C5.22499 0.875192 4.24166 1.16686 4.24166 1.16686C3.81364 2.16548 3.78678 3.29061 4.16666 4.30853C3.35843 5.15744 2.91043 6.28641 2.91666 7.45852C2.91666 11.9752 5.66666 12.9669 8.28332 13.2919C8.00915 13.5752 7.79771 13.913 7.66275 14.2835C7.52778 14.6539 7.47233 15.0486 7.49999 15.4419V18.6669" stroke="white" stroke-width="2" stroke-linecap="round" stroke-linejoin="round"/>
</g>
<defs>
<clipPath id="clip0_394_299">
<rect width="20" height="20" fill="white" transform="translate(0 0.333984)"/>
</clipPath>
</defs>
</svg>
