<svg width="20" height="21" viewBox="0 0 20 21" fill="none" xmlns="http://www.w3.org/2000/svg">
<path d="M14.1667 2.00098H5.83334C3.53215 2.00098 1.66667 3.86646 1.66667 6.16764V14.501C1.66667 16.8022 3.53215 18.6676 5.83334 18.6676H14.1667C16.4679 18.6676 18.3333 16.8022 18.3333 14.501V6.16764C18.3333 3.86646 16.4679 2.00098 14.1667 2.00098Z" stroke="white" stroke-width="2" stroke-linecap="round" stroke-linejoin="round"/>
<path d="M13.3333 9.80924C13.4362 10.5028 13.3177 11.2111 12.9948 11.8334C12.6719 12.4557 12.161 12.9604 11.5347 13.2756C10.9084 13.5908 10.1987 13.7006 9.50648 13.5892C8.81427 13.4778 8.1748 13.151 7.67903 12.6552C7.18326 12.1594 6.85644 11.52 6.74505 10.8277C6.63366 10.1355 6.74338 9.42581 7.0586 8.79955C7.37382 8.17328 7.87848 7.66235 8.50082 7.33944C9.12315 7.01652 9.83146 6.89806 10.525 7.0009C11.2324 7.10581 11.8874 7.43546 12.3931 7.94116C12.8988 8.44686 13.2284 9.1018 13.3333 9.80924Z" stroke="white" stroke-width="2" stroke-linecap="round" stroke-linejoin="round"/>
<path d="M14.5833 5.75098H14.5917" stroke="white" stroke-width="2" stroke-linecap="round" stroke-linejoin="round"/>
</svg>
