<svg width="20" height="21" viewBox="0 0 20 21" fill="none" xmlns="http://www.w3.org/2000/svg">
<g clip-path="url(#clip0_394_297)">
<path d="M19.1667 2.83358C18.3686 3.39647 17.4851 3.827 16.55 4.10858C16.0481 3.5315 15.3811 3.12249 14.6392 2.93685C13.8973 2.75121 13.1162 2.7979 12.4017 3.07062C11.6872 3.34333 11.0737 3.82891 10.6441 4.46167C10.2146 5.09444 9.98974 5.84386 9.99999 6.60858V7.44191C8.53552 7.47988 7.08439 7.15509 5.77584 6.49645C4.46728 5.83781 3.34193 4.86577 2.49999 3.66691C2.49999 3.66691 -0.833338 11.1669 6.66666 14.5002C4.95043 15.6652 2.90596 16.2494 0.833328 16.1669C8.33333 20.3336 17.5 16.1669 17.5 6.58358C17.4992 6.35145 17.4769 6.1199 17.4333 5.89191C18.2838 5.05315 18.884 3.99417 19.1667 2.83358V2.83358Z" stroke="white" stroke-width="2" stroke-linecap="round" stroke-linejoin="round"/>
</g>
<defs>
<clipPath id="clip0_394_297">
<rect width="20" height="20" fill="white" transform="translate(0 0.333984)"/>
</clipPath>
</defs>
</svg>
